<mxfile host="app.diagrams.net" modified="2024-07-23T01:13:02.194Z" agent="Mozilla/5.0 (Windows NT 10.0; Win64; x64) AppleWebKit/537.36 (KHTML, like Gecko) Chrome/126.0.0.0 Safari/537.36" etag="fUxZCw_nb_-wRV74rkql" version="24.7.3" type="device" pages="2">
  <diagram name="페이지-1" id="FBjnpI0jLDktlnYusSt3">
    <mxGraphModel dx="1154" dy="1707" grid="1" gridSize="10" guides="1" tooltips="1" connect="1" arrows="1" fold="1" page="1" pageScale="1" pageWidth="827" pageHeight="1169" math="0" shadow="0">
      <root>
        <mxCell id="0" />
        <mxCell id="1" parent="0" />
        <mxCell id="0dvyu7xRg7RrmKDCG1FK-1" value="비회원" style="rounded=1;whiteSpace=wrap;html=1;fillColor=#fff2cc;strokeColor=#d6b656;" parent="1" vertex="1">
          <mxGeometry x="306.07000000000005" y="-120" width="79" height="30" as="geometry" />
        </mxCell>
        <mxCell id="0dvyu7xRg7RrmKDCG1FK-4" value="회원가입" style="rounded=1;whiteSpace=wrap;html=1;fillColor=#fff2cc;strokeColor=#d6b656;" parent="1" vertex="1">
          <mxGeometry x="305.07000000000005" y="-80" width="80" height="30" as="geometry" />
        </mxCell>
        <mxCell id="0dvyu7xRg7RrmKDCG1FK-15" value="마이페이지" style="rounded=1;whiteSpace=wrap;html=1;fillColor=#fff2cc;strokeColor=#d6b656;" parent="1" vertex="1">
          <mxGeometry x="730" y="-120" width="80" height="30" as="geometry" />
        </mxCell>
        <mxCell id="0dvyu7xRg7RrmKDCG1FK-17" value="회원 정보" style="rounded=1;whiteSpace=wrap;html=1;fillColor=#ffffff;strokeColor=#d6b656;fontSize=11;" parent="1" vertex="1">
          <mxGeometry x="730" y="-80" width="80" height="20" as="geometry" />
        </mxCell>
        <mxCell id="0dvyu7xRg7RrmKDCG1FK-23" value="" style="edgeStyle=orthogonalEdgeStyle;rounded=0;orthogonalLoop=1;jettySize=auto;html=1;endArrow=none;endFill=0;strokeColor=#9e9e9e;exitX=0.5;exitY=0;exitDx=0;exitDy=0;entryX=0.5;entryY=1;entryDx=0;entryDy=0;" parent="1" source="0dvyu7xRg7RrmKDCG1FK-17" target="0dvyu7xRg7RrmKDCG1FK-15" edge="1">
          <mxGeometry relative="1" as="geometry">
            <mxPoint x="905" y="-85" as="sourcePoint" />
            <mxPoint x="820" y="-85" as="targetPoint" />
            <Array as="points" />
          </mxGeometry>
        </mxCell>
        <mxCell id="0dvyu7xRg7RrmKDCG1FK-30" value="라이브러리" style="rounded=1;whiteSpace=wrap;html=1;fillColor=#fff2cc;strokeColor=#d6b656;" parent="1" vertex="1">
          <mxGeometry x="551.0699999999999" y="140" width="80" height="30" as="geometry" />
        </mxCell>
        <mxCell id="0dvyu7xRg7RrmKDCG1FK-31" value="좋아요 목록" style="rounded=1;whiteSpace=wrap;html=1;fillColor=#ffffff;strokeColor=#d6b656;fontSize=11;" parent="1" vertex="1">
          <mxGeometry x="551.07" y="180" width="80" height="20" as="geometry" />
        </mxCell>
        <mxCell id="0dvyu7xRg7RrmKDCG1FK-33" value="&lt;font style=&quot;font-size: 9px;&quot;&gt;받은 쪽지&lt;/font&gt;" style="rounded=1;whiteSpace=wrap;html=1;fillColor=#ffffff;strokeColor=#d6b656;" parent="1" vertex="1">
          <mxGeometry x="524.5" y="70" width="60" height="20" as="geometry" />
        </mxCell>
        <mxCell id="0dvyu7xRg7RrmKDCG1FK-34" value="&lt;div style=&quot;font-size: 10px;&quot;&gt;&lt;font style=&quot;font-size: 10px;&quot;&gt;작성 게시글&amp;nbsp;&lt;/font&gt;&lt;span style=&quot;background-color: initial;&quot;&gt;조회&lt;/span&gt;&lt;/div&gt;" style="rounded=1;whiteSpace=wrap;html=1;fillColor=#ffffff;strokeColor=#d6b656;fontSize=11;" parent="1" vertex="1">
          <mxGeometry x="730" y="-50" width="80" height="20" as="geometry" />
        </mxCell>
        <mxCell id="0dvyu7xRg7RrmKDCG1FK-35" value="&lt;div style=&quot;font-size: 10px;&quot;&gt;작성 댓글&amp;nbsp;&lt;span style=&quot;background-color: initial;&quot;&gt;조회&amp;nbsp;&lt;/span&gt;&lt;/div&gt;" style="rounded=1;whiteSpace=wrap;html=1;fillColor=#ffffff;strokeColor=#d6b656;fontSize=11;" parent="1" vertex="1">
          <mxGeometry x="730" y="-20" width="80" height="20" as="geometry" />
        </mxCell>
        <mxCell id="0dvyu7xRg7RrmKDCG1FK-37" value="" style="edgeStyle=orthogonalEdgeStyle;rounded=0;orthogonalLoop=1;jettySize=auto;html=1;endArrow=none;endFill=0;strokeColor=#9e9e9e;entryX=0.5;entryY=1;entryDx=0;entryDy=0;" parent="1" edge="1">
          <mxGeometry relative="1" as="geometry">
            <mxPoint x="769.7500000000001" y="-20" as="sourcePoint" />
            <mxPoint x="769.7500000000001" y="-30" as="targetPoint" />
            <Array as="points" />
          </mxGeometry>
        </mxCell>
        <mxCell id="0dvyu7xRg7RrmKDCG1FK-38" value="쪽지함" style="rounded=1;whiteSpace=wrap;html=1;fillColor=#fff2cc;strokeColor=#d6b656;" parent="1" vertex="1">
          <mxGeometry x="579.5" y="20" width="80" height="30" as="geometry" />
        </mxCell>
        <mxCell id="0dvyu7xRg7RrmKDCG1FK-43" value="" style="edgeStyle=orthogonalEdgeStyle;rounded=0;orthogonalLoop=1;jettySize=auto;html=1;endArrow=none;endFill=0;strokeColor=#9e9e9e;exitX=0.5;exitY=0;exitDx=0;exitDy=0;entryX=0.5;entryY=1;entryDx=0;entryDy=0;" parent="1" source="0dvyu7xRg7RrmKDCG1FK-31" target="0dvyu7xRg7RrmKDCG1FK-30" edge="1">
          <mxGeometry relative="1" as="geometry">
            <mxPoint x="690.0699999999999" y="120" as="sourcePoint" />
            <mxPoint x="605.0699999999999" y="120" as="targetPoint" />
            <Array as="points" />
          </mxGeometry>
        </mxCell>
        <mxCell id="0dvyu7xRg7RrmKDCG1FK-47" value="&lt;font style=&quot;font-size: 9px;&quot;&gt;보낸 쪽지&lt;/font&gt;" style="rounded=1;whiteSpace=wrap;html=1;fillColor=#ffffff;strokeColor=#d6b656;" parent="1" vertex="1">
          <mxGeometry x="589.5" y="70" width="60" height="20" as="geometry" />
        </mxCell>
        <mxCell id="0dvyu7xRg7RrmKDCG1FK-48" value="&lt;font style=&quot;font-size: 9px;&quot;&gt;보관함&lt;/font&gt;" style="rounded=1;whiteSpace=wrap;html=1;fillColor=#ffffff;strokeColor=#d6b656;" parent="1" vertex="1">
          <mxGeometry x="655.5" y="70" width="60" height="20" as="geometry" />
        </mxCell>
        <mxCell id="0dvyu7xRg7RrmKDCG1FK-50" value="" style="edgeStyle=orthogonalEdgeStyle;rounded=0;orthogonalLoop=1;jettySize=auto;html=1;endArrow=none;endFill=0;strokeColor=#9e9e9e;entryX=0.5;entryY=1;entryDx=0;entryDy=0;" parent="1" source="0dvyu7xRg7RrmKDCG1FK-47" target="0dvyu7xRg7RrmKDCG1FK-38" edge="1">
          <mxGeometry relative="1" as="geometry">
            <mxPoint x="909.4999999999999" y="34.710000000000036" as="sourcePoint" />
            <mxPoint x="754.5" y="34.710000000000036" as="targetPoint" />
            <Array as="points" />
          </mxGeometry>
        </mxCell>
        <mxCell id="0dvyu7xRg7RrmKDCG1FK-51" value="" style="edgeStyle=orthogonalEdgeStyle;rounded=0;orthogonalLoop=1;jettySize=auto;html=1;endArrow=none;endFill=0;strokeColor=#9e9e9e;exitX=0.5;exitY=0;exitDx=0;exitDy=0;entryX=0.5;entryY=0;entryDx=0;entryDy=0;" parent="1" source="0dvyu7xRg7RrmKDCG1FK-48" target="0dvyu7xRg7RrmKDCG1FK-33" edge="1">
          <mxGeometry relative="1" as="geometry">
            <mxPoint x="697" y="60" as="sourcePoint" />
            <mxPoint x="542" y="60" as="targetPoint" />
            <Array as="points">
              <mxPoint x="685.5" y="60" />
              <mxPoint x="554.5" y="60" />
            </Array>
          </mxGeometry>
        </mxCell>
        <mxCell id="0dvyu7xRg7RrmKDCG1FK-52" value="커뮤니티" style="rounded=1;whiteSpace=wrap;html=1;fillColor=#fff2cc;strokeColor=#d6b656;" parent="1" vertex="1">
          <mxGeometry x="330.07" y="140" width="80" height="30" as="geometry" />
        </mxCell>
        <mxCell id="0dvyu7xRg7RrmKDCG1FK-67" value="전체" style="rounded=1;whiteSpace=wrap;html=1;fillColor=#ffffff;strokeColor=#d6b656;fontSize=11;" parent="1" vertex="1">
          <mxGeometry x="221.07" y="180" width="80" height="20" as="geometry" />
        </mxCell>
        <mxCell id="P94jC0ZwyTHtsRuPvJ_n-1" value="작업실" style="rounded=1;whiteSpace=wrap;html=1;fillColor=#fff2cc;strokeColor=#d6b656;" parent="1" vertex="1">
          <mxGeometry x="441.07" y="140" width="80" height="30" as="geometry" />
        </mxCell>
        <mxCell id="_TSB36N1gyCDnTx2Kz4D-8" value="" style="edgeStyle=orthogonalEdgeStyle;rounded=0;orthogonalLoop=1;jettySize=auto;html=1;endArrow=none;endFill=0;strokeColor=#9e9e9e;exitX=0.5;exitY=0;exitDx=0;exitDy=0;entryX=0.5;entryY=0;entryDx=0;entryDy=0;" parent="1" target="LDmnW0OiDP1UQWlY4Xmx-37" edge="1">
          <mxGeometry relative="1" as="geometry">
            <mxPoint x="698.93" y="140" as="sourcePoint" />
            <mxPoint x="201.07" y="140" as="targetPoint" />
            <Array as="points">
              <mxPoint x="699" y="120" />
              <mxPoint x="261" y="120" />
            </Array>
          </mxGeometry>
        </mxCell>
        <mxCell id="_TSB36N1gyCDnTx2Kz4D-9" value="" style="edgeStyle=orthogonalEdgeStyle;rounded=0;orthogonalLoop=1;jettySize=auto;html=1;endArrow=none;endFill=0;strokeColor=#9e9e9e;exitX=0.5;exitY=0;exitDx=0;exitDy=0;entryX=0.5;entryY=0;entryDx=0;entryDy=0;" parent="1" source="0dvyu7xRg7RrmKDCG1FK-30" target="0dvyu7xRg7RrmKDCG1FK-52" edge="1">
          <mxGeometry relative="1" as="geometry">
            <mxPoint x="541.0699999999999" y="130" as="sourcePoint" />
            <mxPoint x="410.07" y="130" as="targetPoint" />
            <Array as="points">
              <mxPoint x="591.0699999999999" y="120" />
              <mxPoint x="370.07" y="120" />
            </Array>
          </mxGeometry>
        </mxCell>
        <mxCell id="LDmnW0OiDP1UQWlY4Xmx-5" value="" style="edgeStyle=orthogonalEdgeStyle;rounded=0;orthogonalLoop=1;jettySize=auto;html=1;endArrow=none;endFill=0;strokeColor=#9e9e9e;exitX=0.5;exitY=0;exitDx=0;exitDy=0;entryX=0.5;entryY=1;entryDx=0;entryDy=0;" parent="1" edge="1">
          <mxGeometry relative="1" as="geometry">
            <mxPoint x="345.44000000000005" y="-80" as="sourcePoint" />
            <mxPoint x="345.44000000000005" y="-90" as="targetPoint" />
            <Array as="points">
              <mxPoint x="345.44000000000005" y="-90" />
              <mxPoint x="345.44000000000005" y="-90" />
            </Array>
          </mxGeometry>
        </mxCell>
        <mxCell id="LDmnW0OiDP1UQWlY4Xmx-6" value="공지사항" style="rounded=1;whiteSpace=wrap;html=1;fillColor=#fff2cc;strokeColor=#d6b656;" parent="1" vertex="1">
          <mxGeometry x="660" y="140" width="80" height="30" as="geometry" />
        </mxCell>
        <mxCell id="LDmnW0OiDP1UQWlY4Xmx-7" value="&lt;font style=&quot;font-size: 11px;&quot;&gt;게시판&lt;/font&gt;" style="rounded=1;whiteSpace=wrap;html=1;fillColor=#ffffff;strokeColor=#d6b656;fontSize=11;" parent="1" vertex="1">
          <mxGeometry x="660" y="180" width="80" height="20" as="geometry" />
        </mxCell>
        <mxCell id="LDmnW0OiDP1UQWlY4Xmx-8" value="" style="edgeStyle=orthogonalEdgeStyle;rounded=0;orthogonalLoop=1;jettySize=auto;html=1;endArrow=none;endFill=0;strokeColor=#9e9e9e;exitX=0.5;exitY=1;exitDx=0;exitDy=0;" parent="1" source="LDmnW0OiDP1UQWlY4Xmx-6" edge="1">
          <mxGeometry relative="1" as="geometry">
            <mxPoint x="644" y="180" as="sourcePoint" />
            <mxPoint x="700" y="180" as="targetPoint" />
            <Array as="points" />
          </mxGeometry>
        </mxCell>
        <mxCell id="LDmnW0OiDP1UQWlY4Xmx-9" value="운영참여" style="rounded=1;whiteSpace=wrap;html=1;fillColor=#fff2cc;strokeColor=#d6b656;" parent="1" vertex="1">
          <mxGeometry x="760" y="140" width="80" height="30" as="geometry" />
        </mxCell>
        <mxCell id="LDmnW0OiDP1UQWlY4Xmx-10" value="전체" style="rounded=1;whiteSpace=wrap;html=1;fillColor=#ffffff;strokeColor=#d6b656;fontSize=11;" parent="1" vertex="1">
          <mxGeometry x="760" y="180" width="80" height="20" as="geometry" />
        </mxCell>
        <mxCell id="LDmnW0OiDP1UQWlY4Xmx-11" value="" style="edgeStyle=orthogonalEdgeStyle;rounded=0;orthogonalLoop=1;jettySize=auto;html=1;endArrow=none;endFill=0;strokeColor=#9e9e9e;exitX=0.5;exitY=1;exitDx=0;exitDy=0;" parent="1" source="LDmnW0OiDP1UQWlY4Xmx-9" edge="1">
          <mxGeometry relative="1" as="geometry">
            <mxPoint x="744" y="180" as="sourcePoint" />
            <mxPoint x="800" y="180" as="targetPoint" />
            <Array as="points" />
          </mxGeometry>
        </mxCell>
        <mxCell id="LDmnW0OiDP1UQWlY4Xmx-12" value="문의" style="rounded=1;whiteSpace=wrap;html=1;fillColor=#ffffff;strokeColor=#d6b656;fontSize=11;" parent="1" vertex="1">
          <mxGeometry x="760" y="210" width="80" height="20" as="geometry" />
        </mxCell>
        <mxCell id="LDmnW0OiDP1UQWlY4Xmx-13" value="" style="edgeStyle=orthogonalEdgeStyle;rounded=0;orthogonalLoop=1;jettySize=auto;html=1;endArrow=none;endFill=0;strokeColor=#9e9e9e;exitX=0.5;exitY=1;exitDx=0;exitDy=0;" parent="1" edge="1">
          <mxGeometry relative="1" as="geometry">
            <mxPoint x="800" y="200" as="sourcePoint" />
            <mxPoint x="800" y="210" as="targetPoint" />
            <Array as="points" />
          </mxGeometry>
        </mxCell>
        <mxCell id="LDmnW0OiDP1UQWlY4Xmx-14" value="신고" style="rounded=1;whiteSpace=wrap;html=1;fillColor=#ffffff;strokeColor=#d6b656;fontSize=11;" parent="1" vertex="1">
          <mxGeometry x="760" y="240" width="80" height="20" as="geometry" />
        </mxCell>
        <mxCell id="LDmnW0OiDP1UQWlY4Xmx-15" value="" style="edgeStyle=orthogonalEdgeStyle;rounded=0;orthogonalLoop=1;jettySize=auto;html=1;endArrow=none;endFill=0;strokeColor=#9e9e9e;exitX=0.5;exitY=1;exitDx=0;exitDy=0;" parent="1" edge="1">
          <mxGeometry relative="1" as="geometry">
            <mxPoint x="800" y="230" as="sourcePoint" />
            <mxPoint x="800" y="240" as="targetPoint" />
            <Array as="points" />
          </mxGeometry>
        </mxCell>
        <mxCell id="LDmnW0OiDP1UQWlY4Xmx-16" value="제안" style="rounded=1;whiteSpace=wrap;html=1;fillColor=#ffffff;strokeColor=#d6b656;fontSize=11;" parent="1" vertex="1">
          <mxGeometry x="760" y="270" width="80" height="20" as="geometry" />
        </mxCell>
        <mxCell id="LDmnW0OiDP1UQWlY4Xmx-17" value="" style="edgeStyle=orthogonalEdgeStyle;rounded=0;orthogonalLoop=1;jettySize=auto;html=1;endArrow=none;endFill=0;strokeColor=#9e9e9e;exitX=0.5;exitY=1;exitDx=0;exitDy=0;" parent="1" edge="1">
          <mxGeometry relative="1" as="geometry">
            <mxPoint x="800" y="260" as="sourcePoint" />
            <mxPoint x="800" y="270" as="targetPoint" />
            <Array as="points" />
          </mxGeometry>
        </mxCell>
        <mxCell id="LDmnW0OiDP1UQWlY4Xmx-18" value="인증" style="rounded=1;whiteSpace=wrap;html=1;fillColor=#ffffff;strokeColor=#d6b656;fontSize=11;" parent="1" vertex="1">
          <mxGeometry x="760" y="300" width="80" height="20" as="geometry" />
        </mxCell>
        <mxCell id="LDmnW0OiDP1UQWlY4Xmx-19" value="" style="edgeStyle=orthogonalEdgeStyle;rounded=0;orthogonalLoop=1;jettySize=auto;html=1;endArrow=none;endFill=0;strokeColor=#9e9e9e;exitX=0.5;exitY=1;exitDx=0;exitDy=0;" parent="1" edge="1">
          <mxGeometry relative="1" as="geometry">
            <mxPoint x="800" y="290" as="sourcePoint" />
            <mxPoint x="800" y="300" as="targetPoint" />
            <Array as="points" />
          </mxGeometry>
        </mxCell>
        <mxCell id="LDmnW0OiDP1UQWlY4Xmx-20" value="마켓" style="rounded=1;whiteSpace=wrap;html=1;fillColor=#ffffff;strokeColor=#d6b656;fontSize=11;" parent="1" vertex="1">
          <mxGeometry x="760" y="330" width="80" height="20" as="geometry" />
        </mxCell>
        <mxCell id="LDmnW0OiDP1UQWlY4Xmx-21" value="" style="edgeStyle=orthogonalEdgeStyle;rounded=0;orthogonalLoop=1;jettySize=auto;html=1;endArrow=none;endFill=0;strokeColor=#9e9e9e;exitX=0.5;exitY=1;exitDx=0;exitDy=0;" parent="1" edge="1">
          <mxGeometry relative="1" as="geometry">
            <mxPoint x="800" y="320" as="sourcePoint" />
            <mxPoint x="800" y="330" as="targetPoint" />
            <Array as="points" />
          </mxGeometry>
        </mxCell>
        <mxCell id="LDmnW0OiDP1UQWlY4Xmx-22" value="기타" style="rounded=1;whiteSpace=wrap;html=1;fillColor=#ffffff;strokeColor=#d6b656;fontSize=11;" parent="1" vertex="1">
          <mxGeometry x="760" y="360" width="80" height="20" as="geometry" />
        </mxCell>
        <mxCell id="LDmnW0OiDP1UQWlY4Xmx-23" value="" style="edgeStyle=orthogonalEdgeStyle;rounded=0;orthogonalLoop=1;jettySize=auto;html=1;endArrow=none;endFill=0;strokeColor=#9e9e9e;exitX=0.5;exitY=1;exitDx=0;exitDy=0;" parent="1" edge="1">
          <mxGeometry relative="1" as="geometry">
            <mxPoint x="800" y="350" as="sourcePoint" />
            <mxPoint x="800" y="360" as="targetPoint" />
            <Array as="points" />
          </mxGeometry>
        </mxCell>
        <mxCell id="LDmnW0OiDP1UQWlY4Xmx-28" value="아트워크" style="rounded=1;whiteSpace=wrap;html=1;fillColor=#ffffff;strokeColor=#d6b656;fontSize=11;" parent="1" vertex="1">
          <mxGeometry x="221.07" y="240" width="80" height="20" as="geometry" />
        </mxCell>
        <mxCell id="LDmnW0OiDP1UQWlY4Xmx-30" value="온라인 강의" style="rounded=1;whiteSpace=wrap;html=1;fillColor=#ffffff;strokeColor=#d6b656;fontSize=11;" parent="1" vertex="1">
          <mxGeometry x="221.07" y="270" width="80" height="20" as="geometry" />
        </mxCell>
        <mxCell id="LDmnW0OiDP1UQWlY4Xmx-31" value="" style="edgeStyle=orthogonalEdgeStyle;rounded=0;orthogonalLoop=1;jettySize=auto;html=1;endArrow=none;endFill=0;strokeColor=#9e9e9e;exitX=0.5;exitY=1;exitDx=0;exitDy=0;entryX=0.5;entryY=0;entryDx=0;entryDy=0;" parent="1" target="LDmnW0OiDP1UQWlY4Xmx-30" edge="1">
          <mxGeometry relative="1" as="geometry">
            <mxPoint x="261.07" y="260" as="sourcePoint" />
            <mxPoint x="151.07" y="270" as="targetPoint" />
            <Array as="points" />
          </mxGeometry>
        </mxCell>
        <mxCell id="LDmnW0OiDP1UQWlY4Xmx-32" value="레슨" style="rounded=1;whiteSpace=wrap;html=1;fillColor=#ffffff;strokeColor=#d6b656;fontSize=11;" parent="1" vertex="1">
          <mxGeometry x="221.07" y="300" width="80" height="20" as="geometry" />
        </mxCell>
        <mxCell id="LDmnW0OiDP1UQWlY4Xmx-33" value="" style="edgeStyle=orthogonalEdgeStyle;rounded=0;orthogonalLoop=1;jettySize=auto;html=1;endArrow=none;endFill=0;strokeColor=#9e9e9e;exitX=0.5;exitY=1;exitDx=0;exitDy=0;entryX=0.5;entryY=0;entryDx=0;entryDy=0;" parent="1" target="LDmnW0OiDP1UQWlY4Xmx-32" edge="1">
          <mxGeometry relative="1" as="geometry">
            <mxPoint x="261.07" y="290" as="sourcePoint" />
            <mxPoint x="151.07" y="300" as="targetPoint" />
            <Array as="points" />
          </mxGeometry>
        </mxCell>
        <mxCell id="LDmnW0OiDP1UQWlY4Xmx-34" value="작업" style="rounded=1;whiteSpace=wrap;html=1;fillColor=#ffffff;strokeColor=#d6b656;fontSize=11;" parent="1" vertex="1">
          <mxGeometry x="221.07" y="330" width="80" height="20" as="geometry" />
        </mxCell>
        <mxCell id="LDmnW0OiDP1UQWlY4Xmx-35" value="" style="edgeStyle=orthogonalEdgeStyle;rounded=0;orthogonalLoop=1;jettySize=auto;html=1;endArrow=none;endFill=0;strokeColor=#9e9e9e;exitX=0.5;exitY=1;exitDx=0;exitDy=0;entryX=0.5;entryY=0;entryDx=0;entryDy=0;" parent="1" target="LDmnW0OiDP1UQWlY4Xmx-34" edge="1">
          <mxGeometry relative="1" as="geometry">
            <mxPoint x="261.07" y="320" as="sourcePoint" />
            <mxPoint x="151.07" y="330" as="targetPoint" />
            <Array as="points" />
          </mxGeometry>
        </mxCell>
        <mxCell id="LDmnW0OiDP1UQWlY4Xmx-37" value="뮤즈 마켓" style="rounded=1;whiteSpace=wrap;html=1;fillColor=#fff2cc;strokeColor=#d6b656;" parent="1" vertex="1">
          <mxGeometry x="221.07" y="140" width="80" height="30" as="geometry" />
        </mxCell>
        <mxCell id="LDmnW0OiDP1UQWlY4Xmx-40" value="" style="edgeStyle=orthogonalEdgeStyle;rounded=0;orthogonalLoop=1;jettySize=auto;html=1;endArrow=none;endFill=0;strokeColor=#9e9e9e;exitX=0.5;exitY=1;exitDx=0;exitDy=0;entryX=0.5;entryY=0;entryDx=0;entryDy=0;" parent="1" source="LDmnW0OiDP1UQWlY4Xmx-37" target="0dvyu7xRg7RrmKDCG1FK-67" edge="1">
          <mxGeometry relative="1" as="geometry">
            <mxPoint x="261.03999999999996" y="175" as="sourcePoint" />
            <mxPoint x="261.03999999999996" y="185" as="targetPoint" />
            <Array as="points" />
          </mxGeometry>
        </mxCell>
        <mxCell id="LDmnW0OiDP1UQWlY4Xmx-48" value="전체" style="rounded=1;whiteSpace=wrap;html=1;fillColor=#ffffff;strokeColor=#d6b656;fontSize=11;" parent="1" vertex="1">
          <mxGeometry x="330.07" y="180" width="80" height="20" as="geometry" />
        </mxCell>
        <mxCell id="LDmnW0OiDP1UQWlY4Xmx-49" value="" style="edgeStyle=orthogonalEdgeStyle;rounded=0;orthogonalLoop=1;jettySize=auto;html=1;endArrow=none;endFill=0;strokeColor=#9e9e9e;exitX=0.5;exitY=1;exitDx=0;exitDy=0;entryX=0.5;entryY=0;entryDx=0;entryDy=0;" parent="1" target="LDmnW0OiDP1UQWlY4Xmx-48" edge="1">
          <mxGeometry relative="1" as="geometry">
            <mxPoint x="370.07" y="170" as="sourcePoint" />
            <mxPoint x="260.07" y="180" as="targetPoint" />
            <Array as="points" />
          </mxGeometry>
        </mxCell>
        <mxCell id="LDmnW0OiDP1UQWlY4Xmx-50" value="인기글" style="rounded=1;whiteSpace=wrap;html=1;fillColor=#ffffff;strokeColor=#d6b656;fontSize=11;" parent="1" vertex="1">
          <mxGeometry x="330.07" y="210" width="80" height="20" as="geometry" />
        </mxCell>
        <mxCell id="LDmnW0OiDP1UQWlY4Xmx-51" value="" style="edgeStyle=orthogonalEdgeStyle;rounded=0;orthogonalLoop=1;jettySize=auto;html=1;endArrow=none;endFill=0;strokeColor=#9e9e9e;exitX=0.5;exitY=1;exitDx=0;exitDy=0;entryX=0.5;entryY=0;entryDx=0;entryDy=0;" parent="1" target="LDmnW0OiDP1UQWlY4Xmx-50" edge="1">
          <mxGeometry relative="1" as="geometry">
            <mxPoint x="370.07" y="200" as="sourcePoint" />
            <mxPoint x="260.07" y="210" as="targetPoint" />
            <Array as="points" />
          </mxGeometry>
        </mxCell>
        <mxCell id="LDmnW0OiDP1UQWlY4Xmx-52" value="일반" style="rounded=1;whiteSpace=wrap;html=1;fillColor=#ffffff;strokeColor=#d6b656;fontSize=11;" parent="1" vertex="1">
          <mxGeometry x="330.07" y="240" width="80" height="20" as="geometry" />
        </mxCell>
        <mxCell id="LDmnW0OiDP1UQWlY4Xmx-53" value="" style="edgeStyle=orthogonalEdgeStyle;rounded=0;orthogonalLoop=1;jettySize=auto;html=1;endArrow=none;endFill=0;strokeColor=#9e9e9e;exitX=0.5;exitY=1;exitDx=0;exitDy=0;entryX=0.5;entryY=0;entryDx=0;entryDy=0;" parent="1" target="LDmnW0OiDP1UQWlY4Xmx-52" edge="1">
          <mxGeometry relative="1" as="geometry">
            <mxPoint x="370.07" y="230" as="sourcePoint" />
            <mxPoint x="260.07" y="240" as="targetPoint" />
            <Array as="points" />
          </mxGeometry>
        </mxCell>
        <mxCell id="LDmnW0OiDP1UQWlY4Xmx-54" value="음악" style="rounded=1;whiteSpace=wrap;html=1;fillColor=#ffffff;strokeColor=#d6b656;fontSize=11;" parent="1" vertex="1">
          <mxGeometry x="330.07" y="270" width="80" height="20" as="geometry" />
        </mxCell>
        <mxCell id="LDmnW0OiDP1UQWlY4Xmx-55" value="" style="edgeStyle=orthogonalEdgeStyle;rounded=0;orthogonalLoop=1;jettySize=auto;html=1;endArrow=none;endFill=0;strokeColor=#9e9e9e;exitX=0.5;exitY=1;exitDx=0;exitDy=0;entryX=0.5;entryY=0;entryDx=0;entryDy=0;" parent="1" target="LDmnW0OiDP1UQWlY4Xmx-54" edge="1">
          <mxGeometry relative="1" as="geometry">
            <mxPoint x="370.07" y="260" as="sourcePoint" />
            <mxPoint x="260.07" y="270" as="targetPoint" />
            <Array as="points" />
          </mxGeometry>
        </mxCell>
        <mxCell id="LDmnW0OiDP1UQWlY4Xmx-56" value="인증/후기" style="rounded=1;whiteSpace=wrap;html=1;fillColor=#ffffff;strokeColor=#d6b656;fontSize=11;" parent="1" vertex="1">
          <mxGeometry x="330.07" y="300" width="80" height="20" as="geometry" />
        </mxCell>
        <mxCell id="LDmnW0OiDP1UQWlY4Xmx-57" value="" style="edgeStyle=orthogonalEdgeStyle;rounded=0;orthogonalLoop=1;jettySize=auto;html=1;endArrow=none;endFill=0;strokeColor=#9e9e9e;exitX=0.5;exitY=1;exitDx=0;exitDy=0;entryX=0.5;entryY=0;entryDx=0;entryDy=0;" parent="1" target="LDmnW0OiDP1UQWlY4Xmx-56" edge="1">
          <mxGeometry relative="1" as="geometry">
            <mxPoint x="370.07" y="290" as="sourcePoint" />
            <mxPoint x="260.07" y="300" as="targetPoint" />
            <Array as="points" />
          </mxGeometry>
        </mxCell>
        <mxCell id="LDmnW0OiDP1UQWlY4Xmx-58" value="질문" style="rounded=1;whiteSpace=wrap;html=1;fillColor=#ffffff;strokeColor=#d6b656;fontSize=11;" parent="1" vertex="1">
          <mxGeometry x="330.07" y="330" width="80" height="20" as="geometry" />
        </mxCell>
        <mxCell id="LDmnW0OiDP1UQWlY4Xmx-59" value="" style="edgeStyle=orthogonalEdgeStyle;rounded=0;orthogonalLoop=1;jettySize=auto;html=1;endArrow=none;endFill=0;strokeColor=#9e9e9e;exitX=0.5;exitY=1;exitDx=0;exitDy=0;entryX=0.5;entryY=0;entryDx=0;entryDy=0;" parent="1" target="LDmnW0OiDP1UQWlY4Xmx-58" edge="1">
          <mxGeometry relative="1" as="geometry">
            <mxPoint x="370.07" y="320" as="sourcePoint" />
            <mxPoint x="260.07" y="330" as="targetPoint" />
            <Array as="points" />
          </mxGeometry>
        </mxCell>
        <mxCell id="LDmnW0OiDP1UQWlY4Xmx-60" value="홍보" style="rounded=1;whiteSpace=wrap;html=1;fillColor=#ffffff;strokeColor=#d6b656;fontSize=11;" parent="1" vertex="1">
          <mxGeometry x="330.07" y="360" width="80" height="20" as="geometry" />
        </mxCell>
        <mxCell id="LDmnW0OiDP1UQWlY4Xmx-61" value="" style="edgeStyle=orthogonalEdgeStyle;rounded=0;orthogonalLoop=1;jettySize=auto;html=1;endArrow=none;endFill=0;strokeColor=#9e9e9e;exitX=0.5;exitY=1;exitDx=0;exitDy=0;entryX=0.5;entryY=0;entryDx=0;entryDy=0;" parent="1" target="LDmnW0OiDP1UQWlY4Xmx-60" edge="1">
          <mxGeometry relative="1" as="geometry">
            <mxPoint x="370.07" y="350" as="sourcePoint" />
            <mxPoint x="260.07" y="360" as="targetPoint" />
            <Array as="points" />
          </mxGeometry>
        </mxCell>
        <mxCell id="LDmnW0OiDP1UQWlY4Xmx-63" value="기타" style="rounded=1;whiteSpace=wrap;html=1;fillColor=#ffffff;strokeColor=#d6b656;fontSize=11;" parent="1" vertex="1">
          <mxGeometry x="330.07" y="390" width="80" height="20" as="geometry" />
        </mxCell>
        <mxCell id="LDmnW0OiDP1UQWlY4Xmx-64" value="" style="edgeStyle=orthogonalEdgeStyle;rounded=0;orthogonalLoop=1;jettySize=auto;html=1;endArrow=none;endFill=0;strokeColor=#9e9e9e;exitX=0.5;exitY=1;exitDx=0;exitDy=0;entryX=0.5;entryY=0;entryDx=0;entryDy=0;" parent="1" target="LDmnW0OiDP1UQWlY4Xmx-63" edge="1">
          <mxGeometry relative="1" as="geometry">
            <mxPoint x="370.07" y="380" as="sourcePoint" />
            <mxPoint x="260.07" y="390" as="targetPoint" />
            <Array as="points" />
          </mxGeometry>
        </mxCell>
        <mxCell id="LDmnW0OiDP1UQWlY4Xmx-65" value="전체" style="rounded=1;whiteSpace=wrap;html=1;fillColor=#ffffff;strokeColor=#d6b656;fontSize=11;" parent="1" vertex="1">
          <mxGeometry x="441.07" y="180" width="80" height="20" as="geometry" />
        </mxCell>
        <mxCell id="LDmnW0OiDP1UQWlY4Xmx-66" value="" style="edgeStyle=orthogonalEdgeStyle;rounded=0;orthogonalLoop=1;jettySize=auto;html=1;endArrow=none;endFill=0;strokeColor=#9e9e9e;exitX=0.5;exitY=1;exitDx=0;exitDy=0;entryX=0.5;entryY=0;entryDx=0;entryDy=0;" parent="1" target="LDmnW0OiDP1UQWlY4Xmx-65" edge="1">
          <mxGeometry relative="1" as="geometry">
            <mxPoint x="481.07" y="170" as="sourcePoint" />
            <mxPoint x="371.07" y="180" as="targetPoint" />
            <Array as="points" />
          </mxGeometry>
        </mxCell>
        <mxCell id="LDmnW0OiDP1UQWlY4Xmx-67" value="발라드" style="rounded=1;whiteSpace=wrap;html=1;fillColor=#ffffff;strokeColor=#d6b656;fontSize=11;" parent="1" vertex="1">
          <mxGeometry x="441.07" y="210" width="80" height="20" as="geometry" />
        </mxCell>
        <mxCell id="LDmnW0OiDP1UQWlY4Xmx-68" value="" style="edgeStyle=orthogonalEdgeStyle;rounded=0;orthogonalLoop=1;jettySize=auto;html=1;endArrow=none;endFill=0;strokeColor=#9e9e9e;exitX=0.5;exitY=1;exitDx=0;exitDy=0;entryX=0.5;entryY=0;entryDx=0;entryDy=0;" parent="1" target="LDmnW0OiDP1UQWlY4Xmx-67" edge="1">
          <mxGeometry relative="1" as="geometry">
            <mxPoint x="481.07" y="200" as="sourcePoint" />
            <mxPoint x="371.07" y="210" as="targetPoint" />
            <Array as="points" />
          </mxGeometry>
        </mxCell>
        <mxCell id="LDmnW0OiDP1UQWlY4Xmx-69" value="랩/힙합" style="rounded=1;whiteSpace=wrap;html=1;fillColor=#ffffff;strokeColor=#d6b656;fontSize=11;" parent="1" vertex="1">
          <mxGeometry x="441.07" y="240" width="80" height="20" as="geometry" />
        </mxCell>
        <mxCell id="LDmnW0OiDP1UQWlY4Xmx-70" value="" style="edgeStyle=orthogonalEdgeStyle;rounded=0;orthogonalLoop=1;jettySize=auto;html=1;endArrow=none;endFill=0;strokeColor=#9e9e9e;exitX=0.5;exitY=1;exitDx=0;exitDy=0;entryX=0.5;entryY=0;entryDx=0;entryDy=0;" parent="1" target="LDmnW0OiDP1UQWlY4Xmx-69" edge="1">
          <mxGeometry relative="1" as="geometry">
            <mxPoint x="481.07" y="230" as="sourcePoint" />
            <mxPoint x="371.07" y="240" as="targetPoint" />
            <Array as="points" />
          </mxGeometry>
        </mxCell>
        <mxCell id="LDmnW0OiDP1UQWlY4Xmx-71" value="R&amp;amp;B/Soul" style="rounded=1;whiteSpace=wrap;html=1;fillColor=#ffffff;strokeColor=#d6b656;fontSize=11;" parent="1" vertex="1">
          <mxGeometry x="441.07" y="270" width="80" height="20" as="geometry" />
        </mxCell>
        <mxCell id="LDmnW0OiDP1UQWlY4Xmx-72" value="" style="edgeStyle=orthogonalEdgeStyle;rounded=0;orthogonalLoop=1;jettySize=auto;html=1;endArrow=none;endFill=0;strokeColor=#9e9e9e;exitX=0.5;exitY=1;exitDx=0;exitDy=0;entryX=0.5;entryY=0;entryDx=0;entryDy=0;" parent="1" target="LDmnW0OiDP1UQWlY4Xmx-71" edge="1">
          <mxGeometry relative="1" as="geometry">
            <mxPoint x="481.07" y="260" as="sourcePoint" />
            <mxPoint x="371.07" y="270" as="targetPoint" />
            <Array as="points" />
          </mxGeometry>
        </mxCell>
        <mxCell id="LDmnW0OiDP1UQWlY4Xmx-73" value="댄스" style="rounded=1;whiteSpace=wrap;html=1;fillColor=#ffffff;strokeColor=#d6b656;fontSize=11;" parent="1" vertex="1">
          <mxGeometry x="441.07" y="300" width="80" height="20" as="geometry" />
        </mxCell>
        <mxCell id="LDmnW0OiDP1UQWlY4Xmx-74" value="" style="edgeStyle=orthogonalEdgeStyle;rounded=0;orthogonalLoop=1;jettySize=auto;html=1;endArrow=none;endFill=0;strokeColor=#9e9e9e;exitX=0.5;exitY=1;exitDx=0;exitDy=0;entryX=0.5;entryY=0;entryDx=0;entryDy=0;" parent="1" target="LDmnW0OiDP1UQWlY4Xmx-73" edge="1">
          <mxGeometry relative="1" as="geometry">
            <mxPoint x="481.07" y="290" as="sourcePoint" />
            <mxPoint x="371.07" y="300" as="targetPoint" />
            <Array as="points" />
          </mxGeometry>
        </mxCell>
        <mxCell id="LDmnW0OiDP1UQWlY4Xmx-75" value="인디" style="rounded=1;whiteSpace=wrap;html=1;fillColor=#ffffff;strokeColor=#d6b656;fontSize=11;" parent="1" vertex="1">
          <mxGeometry x="441.07" y="330" width="80" height="20" as="geometry" />
        </mxCell>
        <mxCell id="LDmnW0OiDP1UQWlY4Xmx-76" value="" style="edgeStyle=orthogonalEdgeStyle;rounded=0;orthogonalLoop=1;jettySize=auto;html=1;endArrow=none;endFill=0;strokeColor=#9e9e9e;exitX=0.5;exitY=1;exitDx=0;exitDy=0;entryX=0.5;entryY=0;entryDx=0;entryDy=0;" parent="1" target="LDmnW0OiDP1UQWlY4Xmx-75" edge="1">
          <mxGeometry relative="1" as="geometry">
            <mxPoint x="481.07" y="320" as="sourcePoint" />
            <mxPoint x="371.07" y="330" as="targetPoint" />
            <Array as="points" />
          </mxGeometry>
        </mxCell>
        <mxCell id="LDmnW0OiDP1UQWlY4Xmx-77" value="록/메탈" style="rounded=1;whiteSpace=wrap;html=1;fillColor=#ffffff;strokeColor=#d6b656;fontSize=11;" parent="1" vertex="1">
          <mxGeometry x="441.07" y="360" width="80" height="20" as="geometry" />
        </mxCell>
        <mxCell id="LDmnW0OiDP1UQWlY4Xmx-78" value="" style="edgeStyle=orthogonalEdgeStyle;rounded=0;orthogonalLoop=1;jettySize=auto;html=1;endArrow=none;endFill=0;strokeColor=#9e9e9e;exitX=0.5;exitY=1;exitDx=0;exitDy=0;entryX=0.5;entryY=0;entryDx=0;entryDy=0;" parent="1" target="LDmnW0OiDP1UQWlY4Xmx-77" edge="1">
          <mxGeometry relative="1" as="geometry">
            <mxPoint x="481.07" y="350" as="sourcePoint" />
            <mxPoint x="371.07" y="360" as="targetPoint" />
            <Array as="points" />
          </mxGeometry>
        </mxCell>
        <mxCell id="LDmnW0OiDP1UQWlY4Xmx-79" value="pop" style="rounded=1;whiteSpace=wrap;html=1;fillColor=#ffffff;strokeColor=#d6b656;fontSize=11;" parent="1" vertex="1">
          <mxGeometry x="441.07" y="390" width="80" height="20" as="geometry" />
        </mxCell>
        <mxCell id="LDmnW0OiDP1UQWlY4Xmx-80" value="" style="edgeStyle=orthogonalEdgeStyle;rounded=0;orthogonalLoop=1;jettySize=auto;html=1;endArrow=none;endFill=0;strokeColor=#9e9e9e;exitX=0.5;exitY=1;exitDx=0;exitDy=0;entryX=0.5;entryY=0;entryDx=0;entryDy=0;" parent="1" target="LDmnW0OiDP1UQWlY4Xmx-79" edge="1">
          <mxGeometry relative="1" as="geometry">
            <mxPoint x="481.07" y="380" as="sourcePoint" />
            <mxPoint x="371.07" y="390" as="targetPoint" />
            <Array as="points" />
          </mxGeometry>
        </mxCell>
        <mxCell id="LDmnW0OiDP1UQWlY4Xmx-81" value="기타" style="rounded=1;whiteSpace=wrap;html=1;fillColor=#ffffff;strokeColor=#d6b656;fontSize=11;" parent="1" vertex="1">
          <mxGeometry x="441.07" y="420" width="80" height="20" as="geometry" />
        </mxCell>
        <mxCell id="LDmnW0OiDP1UQWlY4Xmx-82" value="" style="edgeStyle=orthogonalEdgeStyle;rounded=0;orthogonalLoop=1;jettySize=auto;html=1;endArrow=none;endFill=0;strokeColor=#9e9e9e;exitX=0.5;exitY=1;exitDx=0;exitDy=0;entryX=0.5;entryY=0;entryDx=0;entryDy=0;" parent="1" target="LDmnW0OiDP1UQWlY4Xmx-81" edge="1">
          <mxGeometry relative="1" as="geometry">
            <mxPoint x="481.07" y="410" as="sourcePoint" />
            <mxPoint x="371.07" y="420" as="targetPoint" />
            <Array as="points" />
          </mxGeometry>
        </mxCell>
        <mxCell id="LDmnW0OiDP1UQWlY4Xmx-83" value="" style="edgeStyle=orthogonalEdgeStyle;rounded=0;orthogonalLoop=1;jettySize=auto;html=1;endArrow=none;endFill=0;strokeColor=#9e9e9e;exitX=0.5;exitY=0;exitDx=0;exitDy=0;entryX=0.5;entryY=1;entryDx=0;entryDy=0;" parent="1" source="0dvyu7xRg7RrmKDCG1FK-38" target="WnJgMabi53N5g8d1xl1A-13" edge="1">
          <mxGeometry relative="1" as="geometry">
            <mxPoint x="960.93" y="-170.00000000000023" as="sourcePoint" />
            <mxPoint x="653.9" y="-89.99999999999977" as="targetPoint" />
            <Array as="points">
              <mxPoint x="620" y="20" />
            </Array>
          </mxGeometry>
        </mxCell>
        <mxCell id="LDmnW0OiDP1UQWlY4Xmx-84" value="" style="edgeStyle=orthogonalEdgeStyle;rounded=0;orthogonalLoop=1;jettySize=auto;html=1;endArrow=none;endFill=0;strokeColor=#9e9e9e;exitX=1;exitY=0.5;exitDx=0;exitDy=0;entryX=0.5;entryY=0;entryDx=0;entryDy=0;" parent="1" target="LDmnW0OiDP1UQWlY4Xmx-9" edge="1">
          <mxGeometry relative="1" as="geometry">
            <mxPoint x="699" y="120" as="sourcePoint" />
            <mxPoint x="800" y="139" as="targetPoint" />
            <Array as="points">
              <mxPoint x="800" y="120" />
            </Array>
          </mxGeometry>
        </mxCell>
        <mxCell id="LDmnW0OiDP1UQWlY4Xmx-85" value="" style="edgeStyle=orthogonalEdgeStyle;rounded=0;orthogonalLoop=1;jettySize=auto;html=1;endArrow=none;endFill=0;strokeColor=#9e9e9e;entryX=0.5;entryY=1;entryDx=0;entryDy=0;" parent="1" edge="1">
          <mxGeometry relative="1" as="geometry">
            <mxPoint x="769.9400000000002" y="-50" as="sourcePoint" />
            <mxPoint x="769.9400000000002" y="-60" as="targetPoint" />
            <Array as="points">
              <mxPoint x="770.19" y="-60" />
            </Array>
          </mxGeometry>
        </mxCell>
        <mxCell id="LDmnW0OiDP1UQWlY4Xmx-88" value="&lt;div style=&quot;font-size: 10px;&quot;&gt;좋아요&lt;/div&gt;" style="rounded=1;whiteSpace=wrap;html=1;fillColor=#ffffff;strokeColor=#d6b656;fontSize=11;" parent="1" vertex="1">
          <mxGeometry x="730" y="10" width="80" height="20" as="geometry" />
        </mxCell>
        <mxCell id="LDmnW0OiDP1UQWlY4Xmx-89" value="" style="edgeStyle=orthogonalEdgeStyle;rounded=0;orthogonalLoop=1;jettySize=auto;html=1;endArrow=none;endFill=0;strokeColor=#9e9e9e;entryX=0.5;entryY=1;entryDx=0;entryDy=0;" parent="1" edge="1">
          <mxGeometry relative="1" as="geometry">
            <mxPoint x="769.7500000000001" y="10" as="sourcePoint" />
            <mxPoint x="769.7500000000001" as="targetPoint" />
            <Array as="points" />
          </mxGeometry>
        </mxCell>
        <mxCell id="LDmnW0OiDP1UQWlY4Xmx-90" value="&lt;div style=&quot;&quot;&gt;구매 내역&lt;/div&gt;" style="rounded=1;whiteSpace=wrap;html=1;fillColor=#ffffff;strokeColor=#d6b656;fontSize=11;" parent="1" vertex="1">
          <mxGeometry x="730" y="40" width="80" height="20" as="geometry" />
        </mxCell>
        <mxCell id="LDmnW0OiDP1UQWlY4Xmx-91" value="" style="edgeStyle=orthogonalEdgeStyle;rounded=0;orthogonalLoop=1;jettySize=auto;html=1;endArrow=none;endFill=0;strokeColor=#9e9e9e;entryX=0.5;entryY=1;entryDx=0;entryDy=0;" parent="1" edge="1">
          <mxGeometry relative="1" as="geometry">
            <mxPoint x="769.7500000000001" y="40" as="sourcePoint" />
            <mxPoint x="769.7500000000001" y="30" as="targetPoint" />
            <Array as="points" />
          </mxGeometry>
        </mxCell>
        <mxCell id="LDmnW0OiDP1UQWlY4Xmx-92" value="" style="edgeStyle=orthogonalEdgeStyle;rounded=0;orthogonalLoop=1;jettySize=auto;html=1;endArrow=none;endFill=0;strokeColor=#9e9e9e;entryX=0.5;entryY=1;entryDx=0;entryDy=0;" parent="1" source="P94jC0ZwyTHtsRuPvJ_n-1" target="WnJgMabi53N5g8d1xl1A-14" edge="1">
          <mxGeometry relative="1" as="geometry">
            <mxPoint x="481" y="210" as="sourcePoint" />
            <mxPoint x="481.07000000000016" y="-21" as="targetPoint" />
            <Array as="points" />
          </mxGeometry>
        </mxCell>
        <mxCell id="LDmnW0OiDP1UQWlY4Xmx-94" value="" style="edgeStyle=orthogonalEdgeStyle;rounded=0;orthogonalLoop=1;jettySize=auto;html=1;endArrow=none;endFill=0;strokeColor=#9e9e9e;exitX=0;exitY=0.5;exitDx=0;exitDy=0;entryX=1;entryY=0.5;entryDx=0;entryDy=0;" parent="1" source="WnJgMabi53N5g8d1xl1A-13" edge="1">
          <mxGeometry relative="1" as="geometry">
            <mxPoint x="355" y="-10" as="sourcePoint" />
            <mxPoint x="521.0699999999999" y="-104.99999999999977" as="targetPoint" />
            <Array as="points">
              <mxPoint x="530" y="-105" />
            </Array>
          </mxGeometry>
        </mxCell>
        <mxCell id="LDmnW0OiDP1UQWlY4Xmx-95" value="정보 수정/탈퇴" style="rounded=1;whiteSpace=wrap;html=1;fillColor=#ffffff;strokeColor=#d6b656;fontSize=10;" parent="1" vertex="1">
          <mxGeometry x="830" y="-80" width="80" height="20" as="geometry" />
        </mxCell>
        <mxCell id="LDmnW0OiDP1UQWlY4Xmx-98" value="" style="edgeStyle=orthogonalEdgeStyle;rounded=0;orthogonalLoop=1;jettySize=auto;html=1;endArrow=none;endFill=0;strokeColor=#9e9e9e;exitX=0;exitY=0.5;exitDx=0;exitDy=0;entryX=1;entryY=0.5;entryDx=0;entryDy=0;" parent="1" source="LDmnW0OiDP1UQWlY4Xmx-95" target="0dvyu7xRg7RrmKDCG1FK-17" edge="1">
          <mxGeometry relative="1" as="geometry">
            <mxPoint x="979" y="-120" as="sourcePoint" />
            <mxPoint x="890" y="-120" as="targetPoint" />
            <Array as="points">
              <mxPoint x="820" y="-70" />
              <mxPoint x="820" y="-70" />
            </Array>
          </mxGeometry>
        </mxCell>
        <mxCell id="WnJgMabi53N5g8d1xl1A-2" value="음악" style="rounded=1;whiteSpace=wrap;html=1;fillColor=#ffffff;strokeColor=#d6b656;fontSize=11;" parent="1" vertex="1">
          <mxGeometry x="221.07" y="210" width="80" height="20" as="geometry" />
        </mxCell>
        <mxCell id="WnJgMabi53N5g8d1xl1A-4" value="" style="edgeStyle=orthogonalEdgeStyle;rounded=0;orthogonalLoop=1;jettySize=auto;html=1;endArrow=none;endFill=0;strokeColor=#9e9e9e;exitX=0.5;exitY=1;exitDx=0;exitDy=0;entryX=0.5;entryY=0;entryDx=0;entryDy=0;" parent="1" edge="1">
          <mxGeometry relative="1" as="geometry">
            <mxPoint x="261.09000000000003" y="230" as="sourcePoint" />
            <mxPoint x="261.02" y="240" as="targetPoint" />
            <Array as="points" />
          </mxGeometry>
        </mxCell>
        <mxCell id="WnJgMabi53N5g8d1xl1A-5" value="" style="edgeStyle=orthogonalEdgeStyle;rounded=0;orthogonalLoop=1;jettySize=auto;html=1;endArrow=none;endFill=0;strokeColor=#9e9e9e;exitX=0.5;exitY=1;exitDx=0;exitDy=0;entryX=0.5;entryY=0;entryDx=0;entryDy=0;" parent="1" edge="1">
          <mxGeometry relative="1" as="geometry">
            <mxPoint x="261.11" y="200" as="sourcePoint" />
            <mxPoint x="261.04" y="210" as="targetPoint" />
            <Array as="points" />
          </mxGeometry>
        </mxCell>
        <mxCell id="WnJgMabi53N5g8d1xl1A-6" value="장소" style="rounded=1;whiteSpace=wrap;html=1;fillColor=#ffffff;strokeColor=#d6b656;fontSize=11;" parent="1" vertex="1">
          <mxGeometry x="222.07" y="360" width="80" height="20" as="geometry" />
        </mxCell>
        <mxCell id="WnJgMabi53N5g8d1xl1A-7" value="" style="edgeStyle=orthogonalEdgeStyle;rounded=0;orthogonalLoop=1;jettySize=auto;html=1;endArrow=none;endFill=0;strokeColor=#9e9e9e;exitX=0.5;exitY=1;exitDx=0;exitDy=0;entryX=0.5;entryY=0;entryDx=0;entryDy=0;" parent="1" target="WnJgMabi53N5g8d1xl1A-6" edge="1">
          <mxGeometry relative="1" as="geometry">
            <mxPoint x="262.07" y="350" as="sourcePoint" />
            <mxPoint x="152.07" y="360" as="targetPoint" />
            <Array as="points" />
          </mxGeometry>
        </mxCell>
        <mxCell id="WnJgMabi53N5g8d1xl1A-14" value="메인페이지" style="rounded=1;whiteSpace=wrap;html=1;fillColor=#fbdb79;strokeColor=#d6b656;" parent="1" vertex="1">
          <mxGeometry x="441.07" y="-120" width="80" height="30" as="geometry" />
        </mxCell>
        <mxCell id="WnJgMabi53N5g8d1xl1A-15" value="" style="edgeStyle=orthogonalEdgeStyle;rounded=0;orthogonalLoop=1;jettySize=auto;html=1;endArrow=none;endFill=0;strokeColor=#9e9e9e;exitX=0;exitY=0.5;exitDx=0;exitDy=0;entryX=1;entryY=0.5;entryDx=0;entryDy=0;" parent="1" source="0dvyu7xRg7RrmKDCG1FK-15" target="WnJgMabi53N5g8d1xl1A-13" edge="1">
          <mxGeometry relative="1" as="geometry">
            <mxPoint x="730" y="-105" as="sourcePoint" />
            <mxPoint x="521.0699999999999" y="-104.99999999999977" as="targetPoint" />
            <Array as="points">
              <mxPoint x="530" y="-105" />
            </Array>
          </mxGeometry>
        </mxCell>
        <mxCell id="WnJgMabi53N5g8d1xl1A-13" value="로그인" style="rounded=1;whiteSpace=wrap;html=1;fillColor=#fff2cc;strokeColor=#d6b656;" parent="1" vertex="1">
          <mxGeometry x="580" y="-120" width="80" height="30" as="geometry" />
        </mxCell>
        <mxCell id="WnJgMabi53N5g8d1xl1A-16" value="" style="edgeStyle=orthogonalEdgeStyle;rounded=0;orthogonalLoop=1;jettySize=auto;html=1;endArrow=none;endFill=0;strokeColor=#9e9e9e;exitX=0;exitY=0.5;exitDx=0;exitDy=0;entryX=1;entryY=0.5;entryDx=0;entryDy=0;" parent="1" source="WnJgMabi53N5g8d1xl1A-14" target="0dvyu7xRg7RrmKDCG1FK-1" edge="1">
          <mxGeometry relative="1" as="geometry">
            <mxPoint x="445.57" y="-20" as="sourcePoint" />
            <mxPoint x="375.57" y="-20" as="targetPoint" />
            <Array as="points">
              <mxPoint x="400" y="-105" />
              <mxPoint x="400" y="-105" />
            </Array>
          </mxGeometry>
        </mxCell>
        <mxCell id="WnJgMabi53N5g8d1xl1A-19" value="사이드바" style="rounded=1;whiteSpace=wrap;html=1;fillColor=#fff2cc;strokeColor=#d6b656;" parent="1" vertex="1">
          <mxGeometry x="100" y="-14" width="80" height="30" as="geometry" />
        </mxCell>
        <mxCell id="WnJgMabi53N5g8d1xl1A-20" value="&lt;font style=&quot;font-size: 11px;&quot;&gt;Muse in&lt;/font&gt;&lt;div&gt;&lt;font style=&quot;font-size: 11px;&quot;&gt;everywhere&lt;/font&gt;&lt;/div&gt;" style="rounded=1;whiteSpace=wrap;html=1;fillColor=#ffffff;strokeColor=#d6b656;" parent="1" vertex="1">
          <mxGeometry x="100" y="26" width="80" height="34" as="geometry" />
        </mxCell>
        <mxCell id="WnJgMabi53N5g8d1xl1A-21" value="" style="edgeStyle=orthogonalEdgeStyle;rounded=0;orthogonalLoop=1;jettySize=auto;html=1;endArrow=none;endFill=0;strokeColor=#9e9e9e;exitX=0.5;exitY=1;exitDx=0;exitDy=0;" parent="1" source="WnJgMabi53N5g8d1xl1A-19" edge="1">
          <mxGeometry relative="1" as="geometry">
            <mxPoint x="84" y="26" as="sourcePoint" />
            <mxPoint x="140" y="26" as="targetPoint" />
            <Array as="points" />
          </mxGeometry>
        </mxCell>
        <mxCell id="WnJgMabi53N5g8d1xl1A-22" value="" style="edgeStyle=orthogonalEdgeStyle;rounded=0;orthogonalLoop=1;jettySize=auto;html=1;endArrow=none;endFill=0;strokeColor=#9e9e9e;" parent="1" edge="1">
          <mxGeometry relative="1" as="geometry">
            <mxPoint x="480" as="sourcePoint" />
            <mxPoint x="180" as="targetPoint" />
            <Array as="points">
              <mxPoint x="180" y="0.5" />
            </Array>
          </mxGeometry>
        </mxCell>
        <mxCell id="WnJgMabi53N5g8d1xl1A-23" value="공연 예매" style="rounded=1;whiteSpace=wrap;html=1;fillColor=#ffffff;strokeColor=#d6b656;fontSize=11;" parent="1" vertex="1">
          <mxGeometry x="222.07" y="390" width="80" height="20" as="geometry" />
        </mxCell>
        <mxCell id="WnJgMabi53N5g8d1xl1A-24" value="" style="edgeStyle=orthogonalEdgeStyle;rounded=0;orthogonalLoop=1;jettySize=auto;html=1;endArrow=none;endFill=0;strokeColor=#9e9e9e;exitX=0.5;exitY=1;exitDx=0;exitDy=0;entryX=0.5;entryY=0;entryDx=0;entryDy=0;" parent="1" target="WnJgMabi53N5g8d1xl1A-23" edge="1">
          <mxGeometry relative="1" as="geometry">
            <mxPoint x="262.07" y="380" as="sourcePoint" />
            <mxPoint x="152.07" y="390" as="targetPoint" />
            <Array as="points" />
          </mxGeometry>
        </mxCell>
        <mxCell id="WnJgMabi53N5g8d1xl1A-25" value="플레이리스트" style="rounded=1;whiteSpace=wrap;html=1;fillColor=#ffffff;strokeColor=#d6b656;fontSize=11;" parent="1" vertex="1">
          <mxGeometry x="551.07" y="210" width="80" height="20" as="geometry" />
        </mxCell>
        <mxCell id="WnJgMabi53N5g8d1xl1A-26" value="" style="edgeStyle=orthogonalEdgeStyle;rounded=0;orthogonalLoop=1;jettySize=auto;html=1;endArrow=none;endFill=0;strokeColor=#9e9e9e;exitX=0.5;exitY=0;exitDx=0;exitDy=0;entryX=0.5;entryY=1;entryDx=0;entryDy=0;" parent="1" edge="1">
          <mxGeometry relative="1" as="geometry">
            <mxPoint x="591.03" y="210" as="sourcePoint" />
            <mxPoint x="591.03" y="200" as="targetPoint" />
            <Array as="points" />
          </mxGeometry>
        </mxCell>
        <mxCell id="WnJgMabi53N5g8d1xl1A-27" value="광고" style="rounded=1;whiteSpace=wrap;html=1;fillColor=#ffffff;strokeColor=#d6b656;fontSize=11;" parent="1" vertex="1">
          <mxGeometry x="100" y="70" width="80" height="20" as="geometry" />
        </mxCell>
        <mxCell id="WnJgMabi53N5g8d1xl1A-28" value="" style="edgeStyle=orthogonalEdgeStyle;rounded=0;orthogonalLoop=1;jettySize=auto;html=1;endArrow=none;endFill=0;strokeColor=#9e9e9e;exitX=0.5;exitY=1;exitDx=0;exitDy=0;entryX=0.5;entryY=0;entryDx=0;entryDy=0;" parent="1" target="WnJgMabi53N5g8d1xl1A-27" edge="1">
          <mxGeometry relative="1" as="geometry">
            <mxPoint x="140" y="60" as="sourcePoint" />
            <mxPoint x="30" y="70" as="targetPoint" />
            <Array as="points" />
          </mxGeometry>
        </mxCell>
        <mxCell id="nnorwLx724jL2WTkJuV6-1" value="아티클" style="rounded=1;whiteSpace=wrap;html=1;fillColor=#fff2cc;strokeColor=#d6b656;" parent="1" vertex="1">
          <mxGeometry x="860" y="140" width="80" height="30" as="geometry" />
        </mxCell>
        <mxCell id="nnorwLx724jL2WTkJuV6-2" value="&lt;font style=&quot;font-size: 11px;&quot;&gt;인터뷰&lt;/font&gt;" style="rounded=1;whiteSpace=wrap;html=1;fillColor=#ffffff;strokeColor=#d6b656;fontSize=11;" parent="1" vertex="1">
          <mxGeometry x="860" y="180" width="80" height="20" as="geometry" />
        </mxCell>
        <mxCell id="nnorwLx724jL2WTkJuV6-3" value="" style="edgeStyle=orthogonalEdgeStyle;rounded=0;orthogonalLoop=1;jettySize=auto;html=1;endArrow=none;endFill=0;strokeColor=#9e9e9e;exitX=0.5;exitY=1;exitDx=0;exitDy=0;" parent="1" source="nnorwLx724jL2WTkJuV6-1" edge="1">
          <mxGeometry relative="1" as="geometry">
            <mxPoint x="844" y="180" as="sourcePoint" />
            <mxPoint x="900" y="180" as="targetPoint" />
            <Array as="points" />
          </mxGeometry>
        </mxCell>
        <mxCell id="nnorwLx724jL2WTkJuV6-4" value="" style="edgeStyle=orthogonalEdgeStyle;rounded=0;orthogonalLoop=1;jettySize=auto;html=1;endArrow=none;endFill=0;strokeColor=#9e9e9e;exitX=1;exitY=0.5;exitDx=0;exitDy=0;entryX=0.5;entryY=0;entryDx=0;entryDy=0;" parent="1" edge="1">
          <mxGeometry relative="1" as="geometry">
            <mxPoint x="800" y="120" as="sourcePoint" />
            <mxPoint x="901" y="140" as="targetPoint" />
            <Array as="points">
              <mxPoint x="901" y="120" />
            </Array>
          </mxGeometry>
        </mxCell>
        <mxCell id="sAGOScHKJZvGZPI-7K53-1" value="&lt;div style=&quot;&quot;&gt;판매 내역&lt;/div&gt;" style="rounded=1;whiteSpace=wrap;html=1;fillColor=#ffffff;strokeColor=#d6b656;fontSize=11;" parent="1" vertex="1">
          <mxGeometry x="730" y="70" width="80" height="20" as="geometry" />
        </mxCell>
        <mxCell id="sAGOScHKJZvGZPI-7K53-2" value="" style="edgeStyle=orthogonalEdgeStyle;rounded=0;orthogonalLoop=1;jettySize=auto;html=1;endArrow=none;endFill=0;strokeColor=#9e9e9e;entryX=0.5;entryY=1;entryDx=0;entryDy=0;" parent="1" edge="1">
          <mxGeometry relative="1" as="geometry">
            <mxPoint x="769.7500000000001" y="70" as="sourcePoint" />
            <mxPoint x="769.7500000000001" y="60" as="targetPoint" />
            <Array as="points" />
          </mxGeometry>
        </mxCell>
        <mxCell id="sAGOScHKJZvGZPI-7K53-3" value="판매 승인/취소" style="rounded=1;whiteSpace=wrap;html=1;fillColor=#ffffff;strokeColor=#d6b656;fontSize=10;" parent="1" vertex="1">
          <mxGeometry x="830" y="70" width="80" height="20" as="geometry" />
        </mxCell>
        <mxCell id="sAGOScHKJZvGZPI-7K53-4" value="" style="edgeStyle=orthogonalEdgeStyle;rounded=0;orthogonalLoop=1;jettySize=auto;html=1;endArrow=none;endFill=0;strokeColor=#9e9e9e;exitX=0;exitY=0.5;exitDx=0;exitDy=0;entryX=1;entryY=0.5;entryDx=0;entryDy=0;" parent="1" source="sAGOScHKJZvGZPI-7K53-3" edge="1">
          <mxGeometry relative="1" as="geometry">
            <mxPoint x="979" y="30" as="sourcePoint" />
            <mxPoint x="810" y="80" as="targetPoint" />
            <Array as="points">
              <mxPoint x="820" y="80" />
              <mxPoint x="820" y="80" />
            </Array>
          </mxGeometry>
        </mxCell>
        <mxCell id="vlaKWlZIY6lnONJ0J-CG-5" style="edgeStyle=orthogonalEdgeStyle;rounded=0;orthogonalLoop=1;jettySize=auto;html=1;exitX=0.5;exitY=1;exitDx=0;exitDy=0;" parent="1" source="vlaKWlZIY6lnONJ0J-CG-1" edge="1">
          <mxGeometry relative="1" as="geometry">
            <mxPoint x="150.05555555555554" y="170.1111111111111" as="targetPoint" />
          </mxGeometry>
        </mxCell>
        <mxCell id="vlaKWlZIY6lnONJ0J-CG-1" value="이벤트" style="rounded=1;whiteSpace=wrap;html=1;fillColor=#fff2cc;strokeColor=#d6b656;" parent="1" vertex="1">
          <mxGeometry x="110" y="140" width="80" height="30" as="geometry" />
        </mxCell>
        <mxCell id="vlaKWlZIY6lnONJ0J-CG-2" value="컨테스트" style="rounded=1;whiteSpace=wrap;html=1;fillColor=#ffffff;strokeColor=#d6b656;fontSize=11;" parent="1" vertex="1">
          <mxGeometry x="110" y="180" width="80" height="20" as="geometry" />
        </mxCell>
        <mxCell id="vlaKWlZIY6lnONJ0J-CG-3" value="" style="edgeStyle=orthogonalEdgeStyle;rounded=0;orthogonalLoop=1;jettySize=auto;html=1;endArrow=none;endFill=0;strokeColor=#9e9e9e;exitX=0.5;exitY=1;exitDx=0;exitDy=0;" parent="1" edge="1">
          <mxGeometry relative="1" as="geometry">
            <mxPoint x="150" y="170" as="sourcePoint" />
            <mxPoint x="150" y="180" as="targetPoint" />
            <Array as="points" />
          </mxGeometry>
        </mxCell>
        <mxCell id="vlaKWlZIY6lnONJ0J-CG-4" value="" style="edgeStyle=orthogonalEdgeStyle;rounded=0;orthogonalLoop=1;jettySize=auto;html=1;endArrow=none;endFill=0;strokeColor=#9e9e9e;entryX=0.5;entryY=0;entryDx=0;entryDy=0;" parent="1" edge="1">
          <mxGeometry relative="1" as="geometry">
            <mxPoint x="270" y="120" as="sourcePoint" />
            <mxPoint x="151" y="140" as="targetPoint" />
            <Array as="points">
              <mxPoint x="151" y="120" />
            </Array>
          </mxGeometry>
        </mxCell>
        <mxCell id="vlaKWlZIY6lnONJ0J-CG-6" value="진행 이벤트" style="rounded=1;whiteSpace=wrap;html=1;fillColor=#ffffff;strokeColor=#d6b656;fontSize=11;" parent="1" vertex="1">
          <mxGeometry x="110" y="210" width="80" height="20" as="geometry" />
        </mxCell>
        <mxCell id="vlaKWlZIY6lnONJ0J-CG-7" value="" style="edgeStyle=orthogonalEdgeStyle;rounded=0;orthogonalLoop=1;jettySize=auto;html=1;endArrow=none;endFill=0;strokeColor=#9e9e9e;exitX=0.5;exitY=1;exitDx=0;exitDy=0;" parent="1" edge="1">
          <mxGeometry relative="1" as="geometry">
            <mxPoint x="150" y="200" as="sourcePoint" />
            <mxPoint x="150" y="210" as="targetPoint" />
            <Array as="points" />
          </mxGeometry>
        </mxCell>
        <mxCell id="XSUtfjgemfzje0ayputS-1" value="구매 확정" style="rounded=1;whiteSpace=wrap;html=1;fillColor=#ffffff;strokeColor=#d6b656;fontSize=10;" parent="1" vertex="1">
          <mxGeometry x="830" y="40" width="80" height="20" as="geometry" />
        </mxCell>
        <mxCell id="XSUtfjgemfzje0ayputS-2" value="" style="edgeStyle=orthogonalEdgeStyle;rounded=0;orthogonalLoop=1;jettySize=auto;html=1;endArrow=none;endFill=0;strokeColor=#9e9e9e;exitX=0;exitY=0.5;exitDx=0;exitDy=0;entryX=1;entryY=0.5;entryDx=0;entryDy=0;" parent="1" source="XSUtfjgemfzje0ayputS-1" edge="1">
          <mxGeometry relative="1" as="geometry">
            <mxPoint x="979" as="sourcePoint" />
            <mxPoint x="810" y="50" as="targetPoint" />
            <Array as="points">
              <mxPoint x="820" y="50" />
              <mxPoint x="820" y="50" />
            </Array>
          </mxGeometry>
        </mxCell>
        <mxCell id="3t6eGnIzoYNwwtlWO7Ob-14" value="정산" style="rounded=1;whiteSpace=wrap;html=1;fillColor=#ffffff;strokeColor=#d6b656;fontSize=11;" vertex="1" parent="1">
          <mxGeometry x="930" y="70" width="80" height="20" as="geometry" />
        </mxCell>
        <mxCell id="3t6eGnIzoYNwwtlWO7Ob-15" value="" style="edgeStyle=orthogonalEdgeStyle;rounded=0;orthogonalLoop=1;jettySize=auto;html=1;endArrow=none;endFill=0;strokeColor=#9e9e9e;exitX=0;exitY=0.5;exitDx=0;exitDy=0;" edge="1" parent="1" source="3t6eGnIzoYNwwtlWO7Ob-14">
          <mxGeometry relative="1" as="geometry">
            <mxPoint x="920" y="80" as="sourcePoint" />
            <mxPoint x="910" y="80" as="targetPoint" />
            <Array as="points">
              <mxPoint x="910" y="80" />
            </Array>
          </mxGeometry>
        </mxCell>
      </root>
    </mxGraphModel>
  </diagram>
  <diagram id="xNR_wR3gsrpRQzBDr1mU" name="페이지-2">
    <mxGraphModel grid="1" page="1" gridSize="10" guides="1" tooltips="1" connect="1" arrows="1" fold="1" pageScale="1" pageWidth="827" pageHeight="1169" math="0" shadow="0">
      <root>
        <mxCell id="0" />
        <mxCell id="1" parent="0" />
      </root>
    </mxGraphModel>
  </diagram>
</mxfile>
